<svg version="1.1" xmlns="http://www.w3.org/2000/svg" viewBox="-19.000001000000005 -1.856001117411954 38.000002 3.712002234823908" fill="none" stroke="black" stroke-width="0.6%" vector-effect="non-scaling-stroke">
    <path d="M -12.72775 -0.7517 A 18 0.3561 360 0 1 18 -0.4999 A 18 0.3561 360 0 1 -18 -0.4999 A 18 0.3561 360 0 1 -12.72775 -0.7517 Z" />
    <path d="M -18 0.4999 A 18 0.3561 180 0 0 18 0.4999" />
    <path d="M 9.78633 -0.45905 Q 10.49 -0.45 10.50402 -0.42807 Q 10.51 -0.41 10.50415 -0.42764 Q 10.51 -0.41 9.68022 -0.39456 L 7.5023 -0.35148 L 6.39923 -0.3733 L 8.40744 -0.41303 Q 8.86 -0.42 8.88475 -0.43031 Q 8.91 -0.44 8.88628 -0.43133 Q 8.91 -0.44 8.53474 -0.44604 Q 8.12 -0.45 7.61197 -0.45409 Q 7.11 -0.45 6.59727 -0.44381 L 4.71634 -0.4066 L 3.61327 -0.42842 L 7.41755 -0.50368 L 8.47113 -0.48283 L 8.02564 -0.47402 Q 8.49 -0.47 8.94134 -0.47059 Q 9.4 -0.47 9.78633 -0.45905 Z" />
    <path d="M 5.34576 -0.54466 L 6.39226 -0.52396 L 3.22438 -0.46129 Q 2.18 -0.44 1.12426 -0.44129 Q 0.07 -0.44 -0.97583 -0.46269 Q -1.53 -0.47 -1.88798 -0.48605 Q -2.25 -0.5 -2.3193 -0.50997 L -1.08893 -0.51697 Q -1.05 -0.51 -0.7955 -0.49871 Q -0.54 -0.49 -0.17679 -0.48186 Q 0.4 -0.47 0.92629 -0.47025 Q 1.46 -0.47 1.97989 -0.48032 L 2.14252 -0.48353 Q 1.24 -0.48 0.46669 -0.49794 Q -0.06 -0.51 -0.26161 -0.52145 Q -0.47 -0.53 -0.37597 -0.53615 Q -0.47 -0.53 -0.30402 -0.54788 Q -0.14 -0.56 0.4031 -0.57194 Q 0.95 -0.58 1.61933 -0.58593 Q 2.29 -0.59 2.95577 -0.58509 Q 3.62 -0.58 4.1437 -0.57068 Q 4.97 -0.55 4.87146 -0.53962 Q 4.97 -0.55 4.85785 -0.53501 L 5.34576 -0.54466 Z" />
    <path d="M -3.46478 -0.56845 L 0.33951 -0.64371 L 1.44258 -0.62188 L -2.3617 -0.54663 L -3.46478 -0.56845 Z" />
    <path d="M -6.3568 -0.62231 Q -6.94 -0.63 -7.33259 -0.64791 Q -7.72 -0.66 -7.79927 -0.67351 L -6.54768 -0.68288 Q -6.46 -0.67 -6.16586 -0.6605 Q -5.87 -0.65 -5.43048 -0.64035 Q -4.94 -0.63 -4.56428 -0.62895 Q -4.19 -0.63 -3.94556 -0.63196 Q -3.77 -0.64 -3.78772 -0.63943 Q -3.77 -0.64 -3.78999 -0.64049 Q -3.81 -0.65 -3.95616 -0.65119 Q -4.1 -0.66 -4.38395 -0.66581 Q -4.82 -0.68 -5.04154 -0.68945 Q -5.27 -0.7 -5.23461 -0.70703 Q -5.27 -0.7 -5.22891 -0.71023 Q -5.19 -0.72 -4.69503 -0.731 Q -4.26 -0.74 -3.68032 -0.74184 Q -3.1 -0.74 -2.42167 -0.7389 Q -1.75 -0.73 -1.06758 -0.72023 Q -0.59 -0.71 -0.25442 -0.69966 Q 0.08 -0.69 0.21226 -0.67756 L -1.01105 -0.66735 Q -1.31 -0.69 -1.9939 -0.70218 Q -2.47 -0.71 -2.8601 -0.71316 Q -3.25 -0.71 -3.50003 -0.7096 Q -3.75 -0.7 -3.66368 -0.70202 Q -3.75 -0.7 -3.61318 -0.69687 Q -3.47 -0.69 -3.04751 -0.67602 Q -2.62 -0.66 -2.38991 -0.65238 Q -2.16 -0.64 -2.19155 -0.63441 Q -2.16 -0.64 -2.19547 -0.63175 Q -2.23 -0.62 -2.72228 -0.61111 Q -3.15 -0.6 -3.73345 -0.60048 Q -4.32 -0.6 -4.99917 -0.60356 Q -5.68 -0.61 -6.3568 -0.62231 Z" />
    <path d="M 1.42139 -0.64329 Q 1.12 -0.65 1.1032 -0.65658 Q 1.09 -0.66 1.10247 -0.65732 Q 1.09 -0.66 1.35069 -0.66903 Q 1.61 -0.67 1.98002 -0.67392 Q 2.35 -0.67 2.65177 -0.66763 Q 2.96 -0.66 2.97703 -0.65448 Q 3 -0.65 2.97866 -0.65339 Q 3 -0.65 2.74367 -0.64231 Q 2.47 -0.64 2.09667 -0.63706 Q 1.73 -0.64 1.42139 -0.64329 Z" />
    <path d="M 7.41755 -0.45364 L 7.41755 -0.50368" />
    <path d="M 8.02564 -0.45274 L 8.02564 -0.47402" />
    <path d="M 5.34576 -0.50326 L 5.34576 -0.54466" />
    <path d="M -1.08893 -0.46499 L -1.08893 -0.51697" />
    <path d="M 2.14252 -0.44563 L 2.14252 -0.48353" />
    <path d="M 4.85785 -0.49361 L 4.85785 -0.53501" />
    <path d="M 0.33951 -0.60006 L 0.33951 -0.64371" />
    <path d="M -6.54768 -0.62626 L -6.54768 -0.68288" />
    <path d="M -3.04751 -0.60589 L -3.04751 -0.67602" />
    <path d="M 1.591 -0.51151 Q 2.03 -0.5 2.5668 -0.50242 Q 3.1 -0.5 3.5214 -0.51025 Q 3.94 -0.52 3.91842 -0.52811 Q 3.94 -0.52 3.91739 -0.52914 Q 3.9 -0.54 3.45779 -0.54844 Q 3.02 -0.56 2.47845 -0.55761 Q 1.94 -0.56 1.52031 -0.54984 Q 1.1 -0.54 1.12647 -0.53208 Q 1.1 -0.54 1.12786 -0.53089 Q 1.15 -0.52 1.591 -0.51151 Z" />
    <path d="M 9.78633 -0.39674 L 9.78633 -0.45905" />
    <path d="M 10.50402 -0.42721 L 10.50402 -0.42807" />
    <path d="M 8.40744 -0.36938 L 8.40744 -0.41303" />
    <path d="M 8.88475 -0.37883 L 8.88475 -0.43031" />
    <path d="M 8.94134 -0.37995 L 8.94134 -0.47059" />
    <path d="M -0.7955 -0.45927 L -0.7955 -0.49871" />
    <path d="M -0.17679 -0.44981 L -0.17679 -0.48186" />
    <path d="M 0.92629 -0.4416 L 0.92629 -0.47025" />
    <path d="M 1.97989 -0.44426 L 1.97989 -0.48032" />
    <path d="M -0.30402 -0.52448 L -0.30402 -0.54788" />
    <path d="M 0.4031 -0.49924 L 0.4031 -0.57194" />
    <path d="M 1.61933 -0.55165 L 1.61933 -0.58593" />
    <path d="M 2.95577 -0.55541 L 2.95577 -0.58509" />
    <path d="M 4.1437 -0.47948 L 4.1437 -0.57068" />
    <path d="M -6.16586 -0.61869 L -6.16586 -0.6605" />
    <path d="M -5.43048 -0.60776 L -5.43048 -0.64035" />
    <path d="M -4.56428 -0.60089 L -4.56428 -0.62895" />
    <path d="M -3.94556 -0.59993 L -3.94556 -0.63196" />
    <path d="M -5.22891 -0.70388 L -5.22891 -0.71023" />
    <path d="M -4.69503 -0.6762 L -4.69503 -0.731" />
    <path d="M -3.68032 -0.6007 L -3.68032 -0.74184" />
    <path d="M -2.42167 -0.70931 L -2.42167 -0.7389" />
    <path d="M -1.06758 -0.67111 L -1.06758 -0.72023" />
    <path d="M -0.25442 -0.67366 L -0.25442 -0.69966" />
    <path d="M -3.61318 -0.60101 L -3.61318 -0.69687" />
    <path d="M -2.38991 -0.61947 L -2.38991 -0.65238" />
    <path d="M 1.35069 -0.64479 L 1.35069 -0.66903" />
    <path d="M 1.98002 -0.63728 L 1.98002 -0.67392" />
    <path d="M 2.65177 -0.64069 L 2.65177 -0.66763" />
    <path d="M 2.97703 -0.65233 L 2.97703 -0.65448" />
    <path d="M 1.591 -0.48458 L 1.591 -0.51151" />
    <path d="M 2.5668 -0.45041 L 2.5668 -0.50242" />
    <path d="M 3.5214 -0.46717 L 3.5214 -0.51025" />
    <path d="M 1.12786 -0.48808 L 1.12786 -0.53089" />
    <path d="M -18 -0.4999 L -18 0.4999" />
    <path d="M 18 -0.4999 L 18 0.4999" />
    <path d="M 8.88628 -0.37886 L 8.88628 -0.43133" />
    <path d="M -3.78772 -0.60029 L -3.78772 -0.63943" />
    <path d="M -3.66368 -0.60077 L -3.66368 -0.70202" />
    <path d="M 3.91842 -0.47502 L 3.91842 -0.52811" />
    <path d="M 1.12647 -0.48809 L 1.12647 -0.53208" />
</svg>