<svg version="1.1" xmlns="http://www.w3.org/2000/svg" viewBox="-18.983018109566938 -1.8894167129544903 38.000002 3.7795686742753003" fill="none" stroke="black" stroke-width="0.6%" vector-effect="non-scaling-stroke">
    <path d="M -12.71517 -0.77512 A 18 0.3899 360 0 1 18.01698 -0.49952 A 18 0.3899 360 1 1 -17.98302 -0.49952 A 18 0.3899 360 0 1 -12.71517 -0.77512 Z" />
    <path d="M -17.98302 0.50025 A 18 0.3899 180 0 0 18.01698 0.50025" />
    <path d="M 2.4065 -0.48212 Q 2.61 -0.49 2.579 -0.49055 Q 2.61 -0.49 2.57207 -0.49247 Q 2.53 -0.5 2.22517 -0.50854 Q 1.92 -0.52 1.80782 -0.52618 Q 1.7 -0.53 1.73088 -0.53566 Q 1.7 -0.53 1.74685 -0.53946 Q 1.8 -0.55 2.01875 -0.55009 Q 2.39 -0.56 2.95087 -0.55682 Q 3.52 -0.56 3.99928 -0.54514 Q 4.51 -0.53 4.56174 -0.5216 Q 4.62 -0.51 4.56805 -0.51872 Q 4.62 -0.51 4.20713 -0.5002 L 3.6932 -0.51133 Q 3.9 -0.52 3.87965 -0.52146 Q 3.9 -0.52 3.87671 -0.52303 Q 3.85 -0.53 3.57958 -0.53604 Q 3.3 -0.54 3.02152 -0.54285 Q 2.74 -0.54 2.54649 -0.53938 Q 2.36 -0.54 2.40242 -0.53241 Q 2.36 -0.54 2.41405 -0.53017 Q 2.47 -0.52 2.76369 -0.51482 Q 3.06 -0.5 3.17967 -0.49697 Q 3.3 -0.49 3.26219 -0.48703 Q 3.3 -0.49 3.24617 -0.48314 Q 3.19 -0.48 2.95356 -0.47183 Q 2.55 -0.46 1.99106 -0.46486 Q 1.43 -0.47 0.91778 -0.47762 Q 0.56 -0.49 0.40929 -0.49413 Q 0.26 -0.5 0.30843 -0.50574 Q 0.26 -0.5 0.33169 -0.51118 Q 0.4 -0.52 0.66845 -0.52525 L 1.17962 -0.51418 Q 0.94 -0.51 0.97212 -0.50303 Q 0.94 -0.51 0.97818 -0.5009 Q 1.02 -0.49 1.33472 -0.48666 Q 1.62 -0.48 1.91765 -0.47913 Q 2.21 -0.48 2.4065 -0.48212 Z" />
    <path d="M -1.93922 -0.53947 Q -2.55 -0.55 -2.5299 -0.56858 Q -2.55 -0.55 -2.5294 -0.56953 Q -2.51 -0.59 -1.84349 -0.60092 L -1.74961 -0.60295 Q -1.31 -0.61 -0.78583 -0.61648 Q -0.27 -0.62 0.23613 -0.61804 Q 0.74 -0.62 1.09531 -0.608 Q 1.68 -0.6 1.62348 -0.58292 Q 1.68 -0.6 1.61778 -0.58006 Q 1.56 -0.56 0.8421 -0.54924 L 0.62948 -0.54463 L -1.39584 -0.58847 Q -1.83 -0.58 -1.85126 -0.56741 Q -1.88 -0.56 -1.85276 -0.56605 Q -1.88 -0.56 -1.49465 -0.54791 Q -1.22 -0.54 -0.92553 -0.54037 Q -0.63 -0.54 -0.30404 -0.5396 L -0.2348 -0.52757 Q -1.19 -0.52 -1.93922 -0.53947 Z" />
    <path d="M -5.09942 -0.7397 L -4.61589 -0.72923 L -4.93342 -0.72175 Q -4.22 -0.72 -3.65991 -0.71093 Q -3.03 -0.7 -3.21342 -0.69072 Q -3.03 -0.7 -3.28657 -0.68204 Q -2.92 -0.68 -2.55045 -0.68117 Q -2.18 -0.68 -1.85287 -0.67181 Q -0.87 -0.65 -1.37103 -0.65056 Q -0.87 -0.65 -1.89362 -0.6276 L -3.8955 -0.58421 L -4.40667 -0.59527 L -2.43516 -0.63801 Q -2.11 -0.64 -2.10253 -0.65156 Q -2.09 -0.66 -2.1021 -0.65202 Q -2.09 -0.66 -2.43558 -0.66565 Q -2.72 -0.67 -3.07788 -0.6722 Q -3.44 -0.67 -3.75314 -0.66701 L -5.7357 -0.62404 L -6.24963 -0.63517 L -4.29192 -0.6776 Q -3.64 -0.69 -3.96272 -0.69179 Q -3.64 -0.69 -4.27854 -0.70554 Q -4.78 -0.72 -5.39453 -0.71116 L -7.57589 -0.66388 L -8.08706 -0.67494 L -5.09942 -0.7397 Z" />
    <path d="M 7.54348 -0.52033 L 5.92817 -0.48532 Q 6.68 -0.49 7.22929 -0.47522 Q 8.18 -0.45 7.67659 -0.45522 Q 8.18 -0.45 7.11672 -0.43136 L 5.14245 -0.38857 L 4.63128 -0.39963 L 6.60832 -0.44248 Q 6.93 -0.45 6.93818 -0.45604 Q 6.95 -0.46 6.93847 -0.45643 Q 6.95 -0.46 6.64105 -0.46917 Q 6.39 -0.47 6.07195 -0.47575 Q 5.75 -0.48 5.43115 -0.47454 L 3.30225 -0.4284 L 2.79109 -0.43946 L 7.03232 -0.5314 L 7.54348 -0.52033 Z" />
    <path d="M 0.66845 -0.48387 L 0.66845 -0.52525" />
    <path d="M -0.30404 -0.52728 L -0.30404 -0.5396" />
    <path d="M -5.09942 -0.71277 L -5.09942 -0.7397" />
    <path d="M -4.93342 -0.71281 L -4.93342 -0.72175" />
    <path d="M -3.28657 -0.6719 L -3.28657 -0.68204" />
    <path d="M 5.92817 -0.4761 L 5.92817 -0.48532" />
    <path d="M 6.60832 -0.42034 L 6.60832 -0.44248" />
    <path d="M 7.03232 -0.50925 L 7.03232 -0.5314" />
    <path d="M 0.67561 -0.5989 Q 0.37 -0.61 -0.06889 -0.60527 Q -0.5 -0.6 -0.95955 -0.59721 L 0.53802 -0.56479 L 0.57668 -0.56563 Q 0.94 -0.57 0.97001 -0.58326 Q 1 -0.59 0.97198 -0.58456 Q 1 -0.59 0.67561 -0.5989 Z" />
    <path d="M -0.95955 -0.57903 L -0.95955 -0.59721" />
    <path d="M 0.53802 -0.54661 L 0.53802 -0.56479" />
    <path d="M 0.57668 -0.54578 L 0.57668 -0.56563" />
    <path d="M 2.4065 -0.46512 L 2.4065 -0.48212" />
    <path d="M 1.74685 -0.53153 L 1.74685 -0.53946" />
    <path d="M 2.01875 -0.51598 L 2.01875 -0.55009" />
    <path d="M 2.95087 -0.54297 L 2.95087 -0.55682" />
    <path d="M 3.99928 -0.5047 L 3.99928 -0.54514" />
    <path d="M 4.56174 -0.51594 L 4.56174 -0.5216" />
    <path d="M 2.41405 -0.50162 L 2.41405 -0.53017" />
    <path d="M 2.76369 -0.46843 L 2.76369 -0.51482" />
    <path d="M 3.17967 -0.47866 L 3.17967 -0.49697" />
    <path d="M 0.33169 -0.50022 L 0.33169 -0.51118" />
    <path d="M 0.97818 -0.47635 L 0.97818 -0.5009" />
    <path d="M 1.33472 -0.47027 L 1.33472 -0.48666" />
    <path d="M 1.91765 -0.46512 L 1.91765 -0.47913" />
    <path d="M -2.5294 -0.56763 L -2.5294 -0.56953" />
    <path d="M -1.84349 -0.56943 L -1.84349 -0.60092" />
    <path d="M -1.74961 -0.5771 L -1.74961 -0.60295" />
    <path d="M -0.78583 -0.5999 L -0.78583 -0.61648" />
    <path d="M 0.23613 -0.60455 L 0.23613 -0.61804" />
    <path d="M 1.09531 -0.55526 L 1.09531 -0.608" />
    <path d="M -1.49465 -0.53187 L -1.49465 -0.54791" />
    <path d="M -0.92553 -0.52721 L -0.92553 -0.54037" />
    <path d="M -3.65991 -0.66851 L -3.65991 -0.71093" />
    <path d="M -2.55045 -0.66785 L -2.55045 -0.68117" />
    <path d="M -1.85287 -0.62853 L -1.85287 -0.67181" />
    <path d="M -2.43516 -0.61586 L -2.43516 -0.63801" />
    <path d="M -2.10253 -0.62307 L -2.10253 -0.65156" />
    <path d="M -4.29192 -0.65534 L -4.29192 -0.6776" />
    <path d="M 7.22929 -0.43397 L 7.22929 -0.47522" />
    <path d="M 6.93818 -0.42749 L 6.93818 -0.45604" />
    <path d="M 0.97001 -0.55214 L 0.97001 -0.58326" />
    <path d="M -17.98302 -0.49952 L -17.98302 0.50025" />
    <path d="M 18.01698 -0.49952 L 18.01698 0.50025" />
    <path d="M 2.579 -0.46629 L 2.579 -0.49055" />
    <path d="M 3.87965 -0.50729 L 3.87965 -0.52146" />
    <path d="M 2.40242 -0.5021 L 2.40242 -0.53241" />
    <path d="M 0.97212 -0.47648 L 0.97212 -0.50303" />
    <path d="M -1.85276 -0.53768 L -1.85276 -0.56605" />
    <path d="M -2.1021 -0.62308 L -2.1021 -0.65202" />
    <path d="M -3.96272 -0.66247 L -3.96272 -0.69179" />
    <path d="M 6.93847 -0.4275 L 6.93847 -0.45643" />
    <path d="M 0.97198 -0.55218 L 0.97198 -0.58456" />
</svg>