<svg version="1.1" xmlns="http://www.w3.org/2000/svg" viewBox="-18.983018109566938 -1.8894167129544903 38.000002 3.7795686742753003" fill="none" stroke="black" stroke-width="0.6%" vector-effect="non-scaling-stroke">
    <path d="M -12.71517 -0.77512 A 18 0.3899 360 0 1 18.01698 -0.49952 A 18 0.3899 360 1 1 -17.98302 -0.49952 A 18 0.3899 360 0 1 -12.71517 -0.77512 Z" />
    <path d="M -17.98302 0.50025 A 18 0.3899 180 0 0 18.01698 0.50025" />
    <path d="M 11.17774 -0.38735 L 9.68441 -0.32266 L 12.62005 -0.35613 L 13.16713 -0.34429 L 8.51645 -0.29555 Q 7.49 -0.29 6.88398 -0.29859 L 6.79555 -0.30087 L 6.6408 -0.30577 L 7.05498 -0.31475 L 7.18209 -0.31152 Q 7.44 -0.31 7.6918 -0.30503 Q 7.94 -0.3 8.31462 -0.30818 L 8.73164 -0.31231 L 10.6196 -0.39943 L 11.17774 -0.38735 Z" />
    <path d="M 10.44275 -0.40398 L 9.96782 -0.39369 Q 9.87 -0.4 9.73571 -0.39955 Q 9.23 -0.41 8.62525 -0.40504 L 6.50464 -0.35908 L 5.99347 -0.37014 L 8.98111 -0.4349 L 9.47846 -0.42414 L 9.14159 -0.41648 Q 9.79 -0.42 10.25484 -0.40972 Q 10.4 -0.41 10.44275 -0.40398 Z" />
    <path d="M 4.18094 -0.40699 Q 3.57 -0.42 3.59026 -0.43609 Q 3.57 -0.42 3.59077 -0.43705 Q 3.61 -0.45 4.27667 -0.46843 L 4.37056 -0.47047 Q 4.82 -0.48 5.33433 -0.484 Q 5.85 -0.49 6.3563 -0.48556 Q 6.86 -0.48 7.21548 -0.47551 Q 7.8 -0.46 7.74364 -0.45044 Q 7.8 -0.46 7.73795 -0.44758 Q 7.68 -0.43 6.96226 -0.41676 L 6.74965 -0.41215 L 4.72433 -0.45599 Q 4.29 -0.45 4.2689 -0.43493 Q 4.24 -0.42 4.2674 -0.43357 Q 4.24 -0.42 4.62552 -0.41543 Q 4.9 -0.41 5.19463 -0.40789 Q 5.49 -0.41 5.81613 -0.40712 L 5.88536 -0.39509 Q 4.93 -0.39 4.18094 -0.40699 Z" />
    <path d="M 5.04051 -0.55154 L 5.55167 -0.54048 L 4.82824 -0.5248 L 5.38637 -0.51272 L 4.99152 -0.50416 L 4.43338 -0.51624 L 2.58061 -0.47608 Q 2.4 -0.47 2.38599 -0.46863 Q 2.37 -0.47 2.38481 -0.46807 Q 2.37 -0.47 2.55045 -0.46118 Q 2.64 -0.46 2.82673 -0.45664 L 2.41255 -0.44766 Q 2.16 -0.45 1.96497 -0.45495 Q 1.62 -0.46 1.65247 -0.46918 Q 1.62 -0.46 1.65537 -0.47063 Q 1.69 -0.48 2.06944 -0.48714 L 3.92222 -0.5273 L 3.37789 -0.53909 L 3.77275 -0.54765 L 4.31707 -0.53586 L 5.04051 -0.55154 Z" />
    <path d="M 0.76248 -0.51771 Q 0.97 -0.52 0.93498 -0.52614 Q 0.97 -0.52 0.92805 -0.52806 Q 0.89 -0.53 0.58115 -0.54412 Q 0.28 -0.55 0.1638 -0.56177 Q 0.05 -0.57 0.08687 -0.57124 Q 0.05 -0.57 0.10283 -0.57505 Q 0.15 -0.58 0.37474 -0.58567 Q 0.74 -0.59 1.30685 -0.59241 Q 1.87 -0.59 2.35526 -0.58072 Q 2.86 -0.57 2.91772 -0.55718 Q 2.97 -0.54 2.92404 -0.5543 Q 2.97 -0.54 2.56312 -0.53579 L 2.04919 -0.54692 Q 2.26 -0.55 2.23563 -0.55705 Q 2.26 -0.55 2.23269 -0.55861 Q 2.21 -0.57 1.93556 -0.57163 Q 1.66 -0.58 1.3775 -0.57844 Q 1.1 -0.58 0.90247 -0.57497 Q 0.72 -0.57 0.7584 -0.568 Q 0.72 -0.57 0.77003 -0.56575 Q 0.82 -0.56 1.11967 -0.55041 Q 1.42 -0.54 1.53565 -0.53255 Q 1.65 -0.52 1.61818 -0.52262 Q 1.65 -0.52 1.60215 -0.51873 Q 1.55 -0.51 1.30954 -0.50742 Q 0.91 -0.5 0.34704 -0.50044 Q -0.22 -0.5 -0.72624 -0.51321 Q -1.09 -0.52 -1.23473 -0.52972 Q -1.38 -0.54 -1.33559 -0.54133 Q -1.38 -0.54 -1.31233 -0.54677 Q -1.24 -0.56 -0.97557 -0.56083 L -0.4644 -0.54977 Q -0.71 -0.54 -0.6719 -0.53862 Q -0.71 -0.54 -0.66583 -0.53649 Q -0.62 -0.53 -0.3093 -0.52225 Q -0.02 -0.52 0.27363 -0.51471 Q 0.57 -0.51 0.76248 -0.51771 Z" />
    <path d="M 0.39906 -0.62068 L -2.58858 -0.55592 L -3.09974 -0.56698 L -0.11211 -0.63174 L 0.39906 -0.62068 Z" />
    <path d="M -3.98383 -0.76029 L -3.2986 -0.74546 L -5.26371 -0.64588 L -0.66817 -0.68852 L 0.01983 -0.67362 L -4.0005 -0.58648 L -4.53101 -0.59796 L -2.9654 -0.6319 L -1.2258 -0.66745 L -5.80201 -0.62548 L -6.20818 -0.63427 L -4.27897 -0.73318 L -5.90805 -0.6956 L -7.47366 -0.66166 L -8.00416 -0.67315 L -3.98383 -0.76029 Z" />
    <path d="M 0.63892 -0.64982 Q 0.76 -0.65 0.92475 -0.65272 Q 1.09 -0.65 1.23554 -0.6497 Q 1.38 -0.65 1.37694 -0.64331 Q 1.38 -0.65 1.37651 -0.64294 Q 1.37 -0.64 1.24403 -0.63672 Q 1.12 -0.63 0.95957 -0.6339 Q 0.8 -0.63 0.65016 -0.63701 Q 0.5 -0.64 0.50751 -0.64338 Q 0.5 -0.64 0.50781 -0.64368 Q 0.51 -0.65 0.63892 -0.64982 Z" />
    <path d="M 9.68441 -0.30779 L 9.68441 -0.32266" />
    <path d="M 12.62005 -0.33856 L 12.62005 -0.35613" />
    <path d="M 7.05498 -0.29547 L 7.05498 -0.31475" />
    <path d="M 7.18209 -0.29381 L 7.18209 -0.31152" />
    <path d="M 8.31462 -0.29375 L 8.31462 -0.30818" />
    <path d="M 8.73164 -0.29781 L 8.73164 -0.31231" />
    <path d="M 10.6196 -0.36317 L 10.6196 -0.39943" />
    <path d="M 8.98111 -0.40681 L 8.98111 -0.4349" />
    <path d="M 9.14159 -0.40663 L 9.14159 -0.41648" />
    <path d="M 5.81613 -0.3948 L 5.81613 -0.40712" />
    <path d="M 5.04051 -0.5294 L 5.04051 -0.55154" />
    <path d="M 4.82824 -0.50769 L 4.82824 -0.5248" />
    <path d="M 3.92222 -0.50516 L 3.92222 -0.5273" />
    <path d="M 3.77275 -0.53054 L 3.77275 -0.54765" />
    <path d="M 4.31707 -0.51372 L 4.31707 -0.53586" />
    <path d="M -0.97557 -0.51945 L -0.97557 -0.56083" />
    <path d="M -0.11211 -0.6096 L -0.11211 -0.63174" />
    <path d="M -3.98383 -0.71074 L -3.98383 -0.76029" />
    <path d="M -5.26371 -0.63041 L -5.26371 -0.64588" />
    <path d="M -0.66817 -0.65871 L -0.66817 -0.68852" />
    <path d="M -2.9654 -0.60892 L -2.9654 -0.6319" />
    <path d="M -1.2258 -0.64662 L -1.2258 -0.66745" />
    <path d="M -4.27897 -0.69578 L -4.27897 -0.73318" />
    <path d="M 6.79577 -0.46642 Q 6.49 -0.47 6.05128 -0.47278 Q 5.62 -0.47 5.16061 -0.46473 L 6.65819 -0.43231 L 6.69685 -0.43315 Q 7.06 -0.44 7.09018 -0.45077 Q 7.12 -0.46 7.09215 -0.45208 Q 7.12 -0.46 6.79577 -0.46642 Z" />
    <path d="M 5.16061 -0.44655 L 5.16061 -0.46473" />
    <path d="M 6.65819 -0.41413 L 6.65819 -0.43231" />
    <path d="M 6.69685 -0.41329 L 6.69685 -0.43315" />
    <path d="M 7.6918 -0.29116 L 7.6918 -0.30503" />
    <path d="M 10.25484 -0.39991 L 10.25484 -0.40972" />
    <path d="M 3.59077 -0.43515 L 3.59077 -0.43705" />
    <path d="M 4.27667 -0.43695 L 4.27667 -0.46843" />
    <path d="M 4.37056 -0.44462 L 4.37056 -0.47047" />
    <path d="M 5.33433 -0.46742 L 5.33433 -0.484" />
    <path d="M 6.3563 -0.47207 L 6.3563 -0.48556" />
    <path d="M 7.21548 -0.42278 L 7.21548 -0.47551" />
    <path d="M 4.62552 -0.39939 L 4.62552 -0.41543" />
    <path d="M 5.19463 -0.39473 L 5.19463 -0.40789" />
    <path d="M 2.55045 -0.45065 L 2.55045 -0.46118" />
    <path d="M 1.65537 -0.46775 L 1.65537 -0.47063" />
    <path d="M 2.06944 -0.45286 L 2.06944 -0.48714" />
    <path d="M 0.76248 -0.5007 L 0.76248 -0.51771" />
    <path d="M 0.10283 -0.56712 L 0.10283 -0.57505" />
    <path d="M 0.37474 -0.55157 L 0.37474 -0.58567" />
    <path d="M 1.30685 -0.57856 L 1.30685 -0.59241" />
    <path d="M 2.35526 -0.54029 L 2.35526 -0.58072" />
    <path d="M 2.91772 -0.55153 L 2.91772 -0.55718" />
    <path d="M 0.77003 -0.53721 L 0.77003 -0.56575" />
    <path d="M 1.11967 -0.50402 L 1.11967 -0.55041" />
    <path d="M 1.53565 -0.51424 L 1.53565 -0.53255" />
    <path d="M -1.31233 -0.5358 L -1.31233 -0.54677" />
    <path d="M -0.66583 -0.51194 L -0.66583 -0.53649" />
    <path d="M -0.3093 -0.50586 L -0.3093 -0.52225" />
    <path d="M 0.27363 -0.50071 L 0.27363 -0.51471" />
    <path d="M 0.63892 -0.63726 L 0.63892 -0.64982" />
    <path d="M 0.92475 -0.63392 L 0.92475 -0.65272" />
    <path d="M 1.23554 -0.63654 L 1.23554 -0.6497" />
    <path d="M 0.50781 -0.64308 L 0.50781 -0.64368" />
    <path d="M 7.09018 -0.41965 L 7.09018 -0.45077" />
    <path d="M -17.98302 -0.49952 L -17.98302 0.50025" />
    <path d="M 18.01698 -0.49952 L 18.01698 0.50025" />
    <path d="M 4.2674 -0.4052 L 4.2674 -0.43357" />
    <path d="M 2.38481 -0.44801 L 2.38481 -0.46807" />
    <path d="M 0.93498 -0.50187 L 0.93498 -0.52614" />
    <path d="M 2.23563 -0.54288 L 2.23563 -0.55705" />
    <path d="M 0.7584 -0.53769 L 0.7584 -0.568" />
    <path d="M -0.6719 -0.51206 L -0.6719 -0.53862" />
    <path d="M 7.09215 -0.4197 L 7.09215 -0.45208" />
</svg>