<svg version="1.1" xmlns="http://www.w3.org/2000/svg" viewBox="-18.983018108134793 -1.8862945051067745 38.000002 3.7733183617746384" fill="none" stroke="black" stroke-width="0.6%" vector-effect="non-scaling-stroke">
    <path d="M -12.71517 -0.77292 A 18 0.38677 360 0 1 18.01698 -0.49952 A 18 0.38677 360 0 1 -17.98302 -0.49952 A 18 0.38677 360 0 1 -12.71517 -0.77292 Z" />
    <path d="M -17.98302 0.50025 A 18 0.38677 180 0 0 18.01698 0.50025" />
    <path d="M 13.09253 -0.34714 L 11.59921 -0.28297 L 14.53485 -0.31617 L 15.08193 -0.30442 L 10.43124 -0.25608 Q 9.41 -0.25 8.79877 -0.25909 L 8.71035 -0.26135 L 8.5556 -0.26621 L 8.96978 -0.27512 L 9.09689 -0.27191 Q 9.36 -0.27 9.6066 -0.26548 Q 9.86 -0.26 10.22941 -0.2686 L 10.64643 -0.2727 L 12.5344 -0.35913 L 13.09253 -0.34714 Z" />
    <path d="M 12.35755 -0.36363 L 11.88262 -0.35342 Q 11.79 -0.36 11.65051 -0.35924 Q 11.15 -0.37 10.54005 -0.36469 L 8.41943 -0.31909 L 7.90827 -0.33007 L 10.8959 -0.39431 L 11.39325 -0.38363 L 11.05639 -0.37603 Q 11.71 -0.38 12.16964 -0.36933 Q 12.32 -0.37 12.35755 -0.36363 Z" />
    <path d="M 6.09574 -0.36662 Q 5.49 -0.38 5.50506 -0.39549 Q 5.49 -0.38 5.50556 -0.39644 Q 5.52 -0.41 6.19147 -0.42757 L 6.28535 -0.42959 Q 6.73 -0.44 7.24913 -0.44301 Q 7.77 -0.45 8.2711 -0.44456 Q 8.77 -0.44 9.13028 -0.4346 Q 9.71 -0.42 9.65844 -0.40972 Q 9.71 -0.42 9.65275 -0.40688 Q 9.59 -0.39 8.87706 -0.37631 L 8.66445 -0.37174 L 6.63913 -0.41523 Q 6.21 -0.41 6.1837 -0.39433 Q 6.16 -0.38 6.1822 -0.39299 Q 6.16 -0.38 6.54031 -0.37499 Q 6.81 -0.37 7.10943 -0.36751 Q 7.41 -0.37 7.73092 -0.36675 L 7.80016 -0.35482 Q 6.85 -0.35 6.09574 -0.36662 Z" />
    <path d="M 6.95531 -0.51002 L 7.46647 -0.49904 L 6.74303 -0.48348 L 7.30117 -0.4715 L 6.90632 -0.46301 L 6.34818 -0.47499 L 4.4954 -0.43516 Q 4.32 -0.43 4.30079 -0.42777 Q 4.29 -0.42 4.29961 -0.42721 Q 4.29 -0.42 4.46525 -0.42038 Q 4.55 -0.42 4.74153 -0.41587 L 4.32735 -0.40696 Q 4.07 -0.41 3.87977 -0.4142 Q 3.54 -0.42 3.56727 -0.42831 Q 3.54 -0.42 3.57017 -0.42975 Q 3.6 -0.44 3.98424 -0.44613 L 5.83701 -0.48597 L 5.29269 -0.49766 L 5.68755 -0.50615 L 6.23187 -0.49446 L 6.95531 -0.51002 Z" />
    <path d="M 6.22013 -0.53909 L 2.1998 -0.45265 L 1.66653 -0.4641 L 2.73929 -0.5742 L -0.35879 -0.50759 L -0.89206 -0.51904 L 3.12827 -0.60548 L 3.66154 -0.59403 L 2.58049 -0.48351 L 5.69238 -0.55042 L 6.22013 -0.53909 Z" />
    <path d="M -1.66848 -0.53571 L -2.20451 -0.54722 Q -2.16 -0.55 -1.96157 -0.55553 Q -2.69 -0.56 -3.1826 -0.56585 Q -3.62 -0.58 -3.65801 -0.5868 Q -3.69 -0.6 -3.66067 -0.58861 Q -3.69 -0.6 -3.30752 -0.60651 Q -2.84 -0.62 -2.22765 -0.61447 Q -1.61 -0.61 -0.97063 -0.59857 L -0.47328 -0.58789 L -0.23858 -0.59294 Q 0.03 -0.6 0.02778 -0.60548 Q 0.03 -0.6 0.02777 -0.60555 Q 0.03 -0.61 -0.28594 -0.61911 Q -0.56 -0.62 -0.88267 -0.62599 Q -1.21 -0.63 -1.4019 -0.62278 L -1.91583 -0.63382 Q -1.69 -0.64 -1.32482 -0.6397 Q -0.96 -0.64 -0.56382 -0.63754 Q -0.17 -0.63 0.15587 -0.6273 Q 0.67 -0.62 0.70727 -0.60437 Q 0.74 -0.59 0.7098 -0.60265 Q 0.74 -0.59 0.3002 -0.58255 L -1.07489 -0.55299 Q -1.49 -0.54 -1.6243 -0.53666 L -1.66848 -0.53571 Z" />
    <path d="M -0.89198 -0.69181 L -4.91231 -0.60537 L -5.44558 -0.61682 L -4.37281 -0.72692 L -7.4709 -0.66031 L -8.00417 -0.67176 L -3.98383 -0.7582 L -3.45056 -0.74675 L -4.53161 -0.63623 L -1.41972 -0.70314 L -0.89198 -0.69181 Z" />
    <path d="M 11.59921 -0.26822 L 11.59921 -0.28297" />
    <path d="M 14.53485 -0.29873 L 14.53485 -0.31617" />
    <path d="M 8.96978 -0.256 L 8.96978 -0.27512" />
    <path d="M 9.09689 -0.25435 L 9.09689 -0.27191" />
    <path d="M 10.22941 -0.25429 L 10.22941 -0.2686" />
    <path d="M 10.64643 -0.25831 L 10.64643 -0.2727" />
    <path d="M 12.5344 -0.32316 L 12.5344 -0.35913" />
    <path d="M 10.8959 -0.36645 L 10.8959 -0.39431" />
    <path d="M 11.05639 -0.36626 L 11.05639 -0.37603" />
    <path d="M 7.73092 -0.35453 L 7.73092 -0.36675" />
    <path d="M 6.95531 -0.48805 L 6.95531 -0.51002" />
    <path d="M 6.74303 -0.46652 L 6.74303 -0.48348" />
    <path d="M 5.83701 -0.464 L 5.83701 -0.48597" />
    <path d="M 5.68755 -0.48918 L 5.68755 -0.50615" />
    <path d="M 6.23187 -0.47249 L 6.23187 -0.49446" />
    <path d="M 2.73929 -0.49975 L 2.73929 -0.5742" />
    <path d="M 3.12827 -0.53951 L 3.12827 -0.60548" />
    <path d="M 2.58049 -0.46083 L 2.58049 -0.48351" />
    <path d="M 5.69238 -0.52774 L 5.69238 -0.55042" />
    <path d="M -1.96157 -0.54201 L -1.96157 -0.55553" />
    <path d="M -0.47328 -0.56592 L -0.47328 -0.58789" />
    <path d="M -4.37281 -0.65247 L -4.37281 -0.72692" />
    <path d="M -3.98383 -0.69223 L -3.98383 -0.7582" />
    <path d="M -4.53161 -0.61355 L -4.53161 -0.63623" />
    <path d="M -1.41972 -0.68046 L -1.41972 -0.70314" />
    <path d="M 8.71057 -0.42557 Q 8.4 -0.43 7.96608 -0.43189 Q 7.53 -0.43 7.07541 -0.4239 L 8.57299 -0.39174 L 8.61164 -0.39257 Q 8.98 -0.4 9.00498 -0.41005 Q 9.03 -0.42 9.00694 -0.41134 Q 9.03 -0.42 8.71057 -0.42557 Z" />
    <path d="M 7.07541 -0.40586 L 7.07541 -0.4239" />
    <path d="M 8.57299 -0.3737 L 8.57299 -0.39174" />
    <path d="M 8.61164 -0.37287 L 8.61164 -0.39257" />
    <path d="M -2.66344 -0.57381 Q -2.42 -0.57 -2.08328 -0.56669 Q -1.74 -0.56 -1.44799 -0.56693 L -0.835 -0.58011 L -1.23565 -0.58872 Q -2.18 -0.61 -2.72457 -0.59707 Q -2.96 -0.59 -2.94218 -0.58674 Q -2.96 -0.59 -2.93984 -0.58556 Q -2.91 -0.58 -2.66344 -0.57381 Z" />
    <path d="M -1.44799 -0.54357 L -1.44799 -0.56693" />
    <path d="M -0.835 -0.55815 L -0.835 -0.58011" />
    <path d="M 9.6066 -0.25171 L 9.6066 -0.26548" />
    <path d="M 12.16964 -0.35959 L 12.16964 -0.36933" />
    <path d="M 5.50556 -0.39455 L 5.50556 -0.39644" />
    <path d="M 6.19147 -0.39634 L 6.19147 -0.42757" />
    <path d="M 6.28535 -0.40395 L 6.28535 -0.42959" />
    <path d="M 7.24913 -0.42656 L 7.24913 -0.44301" />
    <path d="M 8.2711 -0.43117 L 8.2711 -0.44456" />
    <path d="M 9.13028 -0.38228 L 9.13028 -0.4346" />
    <path d="M 6.54031 -0.35908 L 6.54031 -0.37499" />
    <path d="M 7.10943 -0.35446 L 7.10943 -0.36751" />
    <path d="M 4.46525 -0.40993 L 4.46525 -0.42038" />
    <path d="M 3.57017 -0.42689 L 3.57017 -0.42975" />
    <path d="M 3.98424 -0.41212 L 3.98424 -0.44613" />
    <path d="M -3.30752 -0.56878 L -3.30752 -0.60651" />
    <path d="M -2.22765 -0.60141 L -2.22765 -0.61447" />
    <path d="M -0.97063 -0.58303 L -0.97063 -0.59857" />
    <path d="M -0.23858 -0.57097 L -0.23858 -0.59294" />
    <path d="M 0.02777 -0.5767 L 0.02777 -0.6054" />
    <path d="M -1.32482 -0.62417 L -1.32482 -0.6397" />
    <path d="M -0.56382 -0.62367 L -0.56382 -0.63754" />
    <path d="M 0.15587 -0.57945 L 0.15587 -0.6273" />
    <path d="M 0.70727 -0.60096 L 0.70727 -0.60437" />
    <path d="M 9.00498 -0.37918 L 9.00498 -0.41005" />
    <path d="M -2.66344 -0.55825 L -2.66344 -0.57381" />
    <path d="M -2.08328 -0.55556 L -2.08328 -0.56669" />
    <path d="M -2.93984 -0.5615 L -2.93984 -0.58556" />
    <path d="M -17.98302 -0.49952 L -17.98302 0.50025" />
    <path d="M 18.01698 -0.49952 L 18.01698 0.50025" />
    <path d="M 6.1822 -0.36484 L 6.1822 -0.39299" />
    <path d="M 4.29961 -0.40731 L 4.29961 -0.42721" />
    <path d="M 0.02778 -0.5767 L 0.02778 -0.60548" />
    <path d="M 9.00694 -0.37923 L 9.00694 -0.41134" />
    <path d="M -2.94218 -0.56153 L -2.94218 -0.58674" />
</svg>