<svg version="1.1" xmlns="http://www.w3.org/2000/svg" viewBox="-3.9883699259223975 -10.71493625622764 12.418881890654772 21.465651679435883" fill="none" stroke="black" stroke-width="0.6%" vector-effect="non-scaling-stroke">
    <path d="M -2.98837 0.09657 L -2.13493 1.13617 L -2 1.13178 Q -0.65 1.07 -0.44506 0.99938" />
    <path d="M 0.4434 -9.25964 Q 0.27 -9.47 -0.63811 -9.5947 Q -1.54 -9.71 -2.98837 -9.70339 L -2.13493 -8.66379 L -2 -8.66818 Q -0.65 -8.73 -0.0138 -8.88242 Q 0.63 -9.04 0.48397 -9.16416 Q 0.63 -9.04 0.4434 -9.25964 Z" />
    <path d="M -2.98837 0.09657 L -2.98837 -9.70339" />
    <path d="M -2.13493 1.13617 L -2.13493 -8.66379" />
    <path d="M -2 1.13178 L -2 -8.66818" />
    <path d="M -0.44506 9.21072 Q -0.62 9.05 -0.40404 9.30759 L -0.40404 -0.49237 Q -0.13 -0.16 1.53305 -0.04925 L 6.29415 -0.20405 Q 7.65 -0.42 7.43051 -0.63759 Q 7.65 -0.42 7.38649 -0.74174 Q 7.17 -1 6.04227 -1.11355 Q 4.91 -1.23 2.92523 -1.16187 Q 1.16 -1.1 0.27245 -0.92792 Q -0.62 -0.75 -0.44506 -0.58924 Q -0.62 -0.75 -0.40404 -0.49237" />
    <path d="M -0.40404 9.30759 Q -0.13 9.64 1.53305 9.75071 L 1.53305 -0.04925" />
    <path d="M 1.53305 9.75071 L 6.29415 9.59591 L 6.29415 -0.20405" />
    <path d="M 6.29415 9.59591 Q 7.65 9.38 7.43051 9.16237 L 7.43051 -0.63759" />
    <path d="M -0.0138 -0.86115 L -0.0138 -8.88242" />
    <path d="M 0.48397 -0.96621 L 0.48397 -9.16416" />
    <path d="M -0.44506 9.21072 L -0.44506 -0.58924" />
</svg>